<svg width="72" height="72" viewBox="0 0 72 72" fill="none" xmlns="http://www.w3.org/2000/svg">
<path d="M5.58035 15.0141H68.0804M68.0804 15.0141V56.5141C68.4137 60.5141 66.8803 68.5141 58.0803 68.5141C49.2803 68.5141 24.747 68.5141 13.5804 68.5141C9.91369 68.8474 2.68035 67.3141 3.08035 58.5141C3.48035 49.7141 3.24702 25.8474 3.08035 15.0141C2.58033 10.8474 4.18029 2.61406 14.5803 3.01406C24.9803 3.41406 47.9137 3.18073 58.0803 3.01406C62.247 3.01407 70.0804 5.41408 68.0804 15.0141Z" stroke="#333333" stroke-width="6" stroke-linecap="round" stroke-linejoin="round"/>
<circle cx="30.5803" cy="30.014" r="3" fill="#333333"/>
<circle cx="42.5803" cy="30.014" r="3" fill="#333333"/>
<circle cx="54.5803" cy="30.014" r="3" fill="#333333"/>
<circle cx="54.5803" cy="42.014" r="3" fill="#333333"/>
<circle cx="42.5803" cy="42.014" r="3" fill="#333333"/>
<circle cx="30.5803" cy="42.014" r="3" fill="#333333"/>
<circle cx="18.5803" cy="42.014" r="3" fill="#333333"/>
<circle cx="18.5803" cy="53.014" r="3" fill="#333333"/>
<circle cx="30.5803" cy="53.014" r="3" fill="#333333"/>
<circle cx="42.5803" cy="53.014" r="3" fill="#333333"/>
</svg>
