<svg width="395" height="397" viewBox="0 0 395 397" fill="none" xmlns="http://www.w3.org/2000/svg">
<path d="M53.5327 35.721C58.553 31.0613 64.4268 27.3854 70.7898 24.8501C130.316 1.13193 252.63 -23.1748 340.517 41.7378C344.515 44.6906 348.123 48.2487 351.196 52.1549C428.697 150.673 394.703 253.367 316.621 312.087C309.566 317.393 301.281 320.89 292.656 322.769C204.152 342.048 176.38 331.444 148.607 331.444C135.215 331.444 108.084 356.901 104.634 360.191C104.387 360.426 104.15 360.653 103.9 360.884C100.173 364.341 69.1065 392.68 49.6815 395.455C28.0987 398.538 20.6402 394.984 19.1911 390.542C17.726 386.051 22.2683 382.134 25.6089 378.793V378.793C52.2704 352.132 53.1426 309.523 34.8625 276.546C-3.21717 207.851 -26.2061 109.732 53.5327 35.721Z" fill="#C4C4C4"/>
<circle cx="104.27" cy="156.87" r="23.2766" fill="white"/>
<circle cx="197.376" cy="156.87" r="23.2766" fill="white"/>
<circle cx="290.483" cy="156.87" r="23.2766" fill="white"/>
</svg>
