<svg width="57" height="72" viewBox="0 0 57 72" fill="none" xmlns="http://www.w3.org/2000/svg">
<path d="M29.6477 3.17967C33.0306 3.73762 35.6239 5.94679 36.6744 7.26156L54 26.6505C54 26.9754 54 27.316 54 27.671M29.6477 3.17967C28.6544 3.01586 27.5931 2.99439 26.4828 3.17967C21.5909 3.17967 13.9133 3.17967 10.686 3.17967C8.13803 2.49936 3.04219 3.38376 3.04219 12.3639V57.7748C2.70247 61.5166 4.26517 69 13.2337 69C22.2023 69 37.6935 69 44.318 69C47.5454 68.8299 54 66.755 54 59.8158C54 53.1528 54 36.2344 54 27.671M29.6477 3.17967V21.0379C29.7817 23.2489 31.069 27.671 35.1457 27.671C39.2223 27.671 49.4138 27.671 54 27.671" stroke="black" stroke-width="5" stroke-linejoin="round"/>
</svg>
