<svg width="375" height="376" viewBox="0 0 375 376" fill="none" xmlns="http://www.w3.org/2000/svg">
<path d="M47.5263 47.2025C52.696 41.7106 55.2808 38.9647 63.0772 33.9078C70.8736 28.851 74.9634 27.4264 83.1429 24.5772C138.981 5.12665 237.351 -10.4006 311.942 39.2524C316.53 42.3058 318.823 43.8326 323.759 48.5656C328.694 53.2987 330.498 55.7771 334.106 60.7338C394.43 143.612 370.301 228.755 309.234 282.222C301.643 288.868 297.847 292.192 288.642 296.69C279.436 301.189 272.951 302.436 259.982 304.93C190.765 318.241 166.978 309.754 143.191 309.754C131.363 309.754 107.838 331.425 103.319 335.694C102.607 336.366 102.251 336.702 102.054 336.886C101.856 337.07 101.831 337.093 101.78 337.14C96.8581 341.66 69.7202 365.961 52.5301 368.417C32.7504 371.242 25.915 367.986 24.587 363.915C23.2442 359.799 27.4071 356.209 30.4686 353.147V353.147C54.9027 328.713 55.702 289.664 38.9491 259.442C5.48412 199.072 -15.2636 113.906 47.5263 47.2025Z" fill="white" stroke="#B9B9B9" stroke-width="12" stroke-linecap="round" stroke-linejoin="round"/>
<circle cx="102.558" cy="149.764" r="21.332" fill="#6C6C6C"/>
<circle cx="187.886" cy="149.764" r="21.332" fill="#6C6C6C"/>
<circle cx="273.214" cy="149.764" r="21.332" fill="#6C6C6C"/>
</svg>
